# Blender 4.4.0
# www.blender.org
o Cylinder
v 0.523120 0.772852 -0.306455
v 0.426457 0.997241 -0.359520
v 0.417057 0.772852 -0.160471
v 0.408317 1.053734 -0.314552
v 0.245443 0.772852 -0.216232
v 0.356793 1.046495 -0.302153
v 0.245443 0.772852 -0.396678
v 0.328684 1.046495 -0.347659
v 0.417057 0.772852 -0.452439
v 0.368317 0.992612 -0.390628
v 0.475216 0.814480 -0.331359
v 0.486725 0.868497 -0.365312
v 0.437236 0.951620 -0.353383
v 0.420652 0.946876 -0.279622
v 0.433094 0.863961 -0.222466
v 0.414592 0.812052 -0.221858
v 0.345585 0.939199 -0.273109
v 0.287384 0.860205 -0.229416
v 0.291823 0.808125 -0.245938
v 0.315775 0.939199 -0.342845
v 0.249042 0.860205 -0.377406
v 0.276572 0.808125 -0.370320
v 0.372419 0.946876 -0.392457
v 0.377340 0.870080 -0.459232
v 0.389915 0.812052 -0.423113
v 0.229099 1.069948 -0.306769
v 0.304083 1.061505 -0.258136
v 0.299117 1.040101 -0.252506
v 0.228137 1.054797 -0.311922
v 0.486303 1.091739 -0.296944
v 0.486196 1.093990 -0.317501
v 0.500043 1.081576 -0.313953
v 0.497502 1.077425 -0.293143
v 0.353564 1.075840 -0.229043
v 0.389411 1.076059 -0.250605
v 0.387582 1.074389 -0.218358
v 0.349506 1.074162 -0.209439
v 0.294111 1.083270 -0.448281
v 0.274079 1.081472 -0.420192
v 0.273826 1.070986 -0.426436
v 0.297758 1.069261 -0.453027
v 0.442454 0.922796 -0.346564
v 0.416353 0.919475 -0.271767
v 0.329651 0.906852 -0.277986
v 0.307753 0.906852 -0.354315
v 0.373236 0.912491 -0.398516
v 0.364838 1.005219 -0.156714
v 0.377100 0.999593 -0.141375
v 0.333287 1.004471 -0.157539
v 0.316410 0.998284 -0.144051
v 0.169608 0.972636 -0.287128
v 0.154712 0.962212 -0.270010
v 0.161890 0.972636 -0.314028
v 0.141199 0.962212 -0.322166
v 0.291639 0.925302 -0.480751
v 0.273423 0.910830 -0.487914
v 0.311955 0.927052 -0.494464
v 0.313228 0.913894 -0.513301
v 0.473809 0.982443 -0.498807
v 0.467259 0.956484 -0.507539
v 0.513664 0.965008 -0.473751
v 0.498338 0.986437 -0.481749
v 0.543036 0.954522 -0.250093
v 0.549047 0.934589 -0.232391
v 0.568303 0.936218 -0.283680
v 0.552408 0.955714 -0.276948
v 0.454037 0.783704 -0.306455
v 0.395709 0.783704 -0.226173
v 0.301331 0.783704 -0.256838
v 0.301331 0.783704 -0.356072
v 0.395709 0.783704 -0.386737
v 0.454037 0.731427 -0.306455
v 0.395709 0.731427 -0.226173
v 0.301331 0.731427 -0.256838
v 0.301331 0.731427 -0.356072
v 0.395709 0.731427 -0.386737
vn -0.3046 0.5314 -0.7905
vn -0.2175 0.8997 -0.3784
vn -0.5858 -0.5921 0.5534
vn 0.4105 0.8759 -0.2536
vn 0.8073 0.3668 -0.4623
vn 0.5159 0.0067 -0.8566
vn 0.0589 -0.9817 0.1813
vn 0.7000 0.5013 -0.5086
vn 0.6400 -0.5020 -0.5817
vn 0.6058 -0.0777 -0.7918
vn -0.2767 0.4454 -0.8515
vn -0.3372 -0.5491 -0.7647
vn -0.5367 0.3971 -0.7445
vn -0.7498 0.6617 -0.0000
vn -0.8849 -0.4530 0.1085
vn -0.9519 0.1392 0.2731
vn -0.1971 0.7701 0.6067
vn -0.1733 -0.3112 0.9344
vn -0.0531 -0.1232 0.9910
vn 0.5803 0.6967 0.4216
vn 0.8390 -0.2937 0.4580
vn 0.9435 -0.0543 0.3268
vn -0.6528 -0.2064 0.7288
vn 0.6372 0.1387 0.7581
vn 0.1834 0.9765 -0.1133
vn -0.2929 0.3245 -0.8994
vn 0.7399 0.6366 0.2173
vn 0.5199 0.0079 -0.8542
vn 0.8577 -0.4882 0.1614
vn -0.2486 0.0622 0.9666
vn 0.0148 0.9960 0.0883
vn -0.9936 0.0829 -0.0772
vn 0.2091 -0.4222 0.8821
vn 0.9731 0.2204 0.0666
vn -0.7418 0.0338 -0.6698
vn -0.7962 0.1224 0.5925
vn -0.6040 -0.6177 -0.5036
vn 0.2657 0.9313 0.2491
vn -0.2588 0.9648 -0.0475
vn 0.9361 0.3446 0.0701
vn -0.0297 0.4733 -0.8804
vn -0.6555 0.7309 0.1902
vn -0.7359 0.5307 -0.4205
vn -0.0366 0.9249 0.3784
vn -0.0700 0.7846 -0.6161
vn -0.8438 0.4291 -0.3223
vn -0.0263 -0.5217 0.8527
vn -0.4854 0.8652 0.1258
vn -0.6323 -0.7572 0.1638
vn 0.3080 0.6696 0.6758
vn 0.3832 0.9171 -0.1099
vn -0.3931 0.7547 -0.5252
vn -0.2175 -0.8683 -0.4458
vn 0.0113 0.9897 0.1430
vn 0.7156 0.5944 -0.3668
vn 0.5725 0.1060 -0.8130
vn 0.5832 0.6151 0.5306
vn 0.4971 -0.7058 -0.5047
vn -0.3438 0.8962 0.2803
vn 0.7946 0.5192 0.3148
vn 0.5232 -0.8351 0.1699
vn -0.2913 0.5846 0.7572
vn 0.3304 0.5373 -0.7760
vn 0.8090 -0.0000 -0.5878
vn 0.0589 -0.9817 -0.1813
vn -0.1542 -0.9817 0.1120
vn -0.1542 -0.9817 -0.1120
vn 0.1906 -0.9817 -0.0000
vn -0.0000 -1.0000 -0.0000
vn -1.0000 -0.0000 -0.0000
vn 0.8090 -0.0000 0.5878
vn -0.3090 -0.0000 -0.9511
vn -0.3090 -0.0000 0.9511
vn -0.4539 0.8855 0.0993
vn -0.2288 0.8999 -0.3713
vn -0.8212 -0.4499 0.3510
vn -0.2677 0.5460 -0.7939
vn 0.2838 0.7167 -0.6370
vn 0.7138 0.0918 -0.6943
vn 0.4656 0.0770 -0.8816
vn 0.5038 0.7133 -0.4872
vn 0.6154 -0.3161 -0.7221
vn 0.5008 0.1617 -0.8503
vn -0.3095 0.7292 -0.6103
vn -0.4811 -0.3629 -0.7981
vn -0.6633 0.1145 -0.7396
vn -0.5748 0.8152 0.0705
vn -0.9556 -0.1600 0.2476
vn -0.8556 0.3663 0.3657
vn -0.1320 0.8330 0.5373
vn -0.0484 0.0289 0.9984
vn 0.0562 0.2670 0.9621
vn 0.5270 0.7915 0.3093
vn 0.9357 0.0219 0.3520
vn 0.9474 0.2253 0.2275
vn -0.4882 0.3262 0.8094
vn 0.6484 0.0494 0.7597
vn -0.3351 -0.0020 -0.9422
vn 0.6542 0.7522 0.0790
vn 0.3787 0.1619 -0.9112
vn 0.8975 -0.4404 0.0218
vn -0.2914 0.2667 0.9187
vn 0.0259 0.9982 0.0532
vn -0.9743 0.1186 -0.1915
vn 0.1200 -0.4045 0.9066
vn 0.9584 0.1824 0.2197
vn -0.7769 0.3358 -0.5326
vn -0.8272 -0.2726 0.4913
vn -0.4951 -0.5723 -0.6538
vn 0.7870 0.6152 -0.0456
vn 0.6444 0.7227 -0.2501
vn 0.0665 0.5286 -0.8463
vn -0.7723 0.3689 -0.5172
vn -0.0316 0.9299 0.3664
vn -0.0019 0.7769 -0.6296
vn -0.6459 0.4950 -0.5811
vn -0.0273 -0.5212 0.8530
vn -0.4616 0.8771 0.1324
vn 0.2068 0.6095 0.7653
vn -0.4254 0.7282 -0.5374
vn 0.5502 0.1382 -0.8235
vn 0.7319 0.4085 0.5454
vn 0.4327 -0.7390 -0.5164
vn -0.3415 0.8969 0.2810
vn 0.7876 0.5390 0.2988
vt 0.478254 0.324164
vt 0.250000 0.490000
vt 0.326203 0.466892
vt 0.391068 0.055836
vt 0.400000 0.886930
vt 0.600000 0.949919
vt 0.108932 0.055836
vt 0.200000 0.935325
vt 0.200000 0.886930
vt 0.200000 1.000000
vt 0.000000 0.935325
vt 0.000000 0.886929
vt 0.200000 0.500000
vt 0.400000 0.500000
vt 0.000000 0.636930
vt 0.000000 0.500000
vt 0.200000 0.636930
vt 0.000000 0.761929
vt 0.200000 0.798877
vt 0.000000 0.798877
vt 0.400000 0.636930
vt 0.200000 0.761929
vt 0.400000 0.798877
vt 0.600000 0.500000
vt 0.600000 0.636929
vt 0.400000 0.761930
vt 0.600000 0.798877
vt 0.800000 0.500000
vt 0.800000 0.636929
vt 0.600000 0.761930
vt 0.800000 0.798877
vt 0.600000 0.886929
vt 1.000000 0.500000
vt 1.000000 0.636929
vt 0.800000 0.761929
vt 1.000000 0.798877
vt 0.800000 0.886930
vt 0.400000 1.000000
vt 0.600000 1.000000
vt 0.391068 0.055836
vt 1.000000 0.886930
vt 0.800000 1.000000
vt 0.280825 0.886930
vt 0.021746 0.324164
vt 0.056980 0.215726
vt 1.000000 0.761929
vt 0.978254 0.324164
vt 0.608932 0.055836
vt 0.521746 0.324164
vt 0.026178 0.309547
vt 1.000000 1.000000
vt 0.000000 1.000000
vt 0.280825 1.000000
vt 0.750000 0.490000
vt 0.891068 0.055836
s 0
f 4/1/1 31/2/1 2/3/1
f 6/4/2 35/1/2 4/1/2
f 20/5/3 28/6/3 29/5/3
f 2/3/4 8/7/4 6/4/4
f 10/8/5 41/9/5 38/10/5
f 23/9/6 2/11/6 13/12/6
f 9/13/7 70/14/7 7/14/7
f 9/13/8 11/15/8 1/16/8
f 25/17/9 12/18/9 11/15/9
f 46/19/10 13/12/10 42/20/10
f 7/14/11 25/17/11 9/13/11
f 22/21/12 24/22/12 25/17/12
f 20/5/13 46/19/13 45/23/13
f 5/24/14 22/21/14 7/14/14
f 19/25/15 21/26/15 22/21/15
f 44/27/16 20/5/16 45/23/16
f 3/28/17 19/25/17 5/24/17
f 16/29/18 18/30/18 19/25/18
f 43/31/19 17/32/19 44/27/19
f 1/33/20 16/29/20 3/28/20
f 11/34/21 15/35/21 16/29/21
f 42/36/22 14/37/22 43/31/22
f 28/6/23 26/38/23 29/5/23
f 6/39/24 28/6/24 17/32/24
f 8/7/25 27/40/25 6/4/25
f 8/38/26 29/5/26 26/38/26
f 32/41/27 30/42/27 33/37/27
f 2/11/28 32/12/28 13/12/28
f 13/41/29 33/37/29 14/37/29
f 4/42/30 33/37/30 30/42/30
f 36/37/31 34/39/31 37/32/31
f 17/32/32 34/39/32 6/39/32
f 17/32/33 36/37/33 37/32/33
f 14/37/34 35/42/34 36/37/34
f 40/43/35 38/10/35 41/9/35
f 8/38/36 40/43/36 20/5/36
f 23/9/37 40/43/37 41/9/37
f 8/7/38 38/44/38 39/45/38
f 43/31/39 66/36/39 42/36/39
f 43/31/40 48/35/40 15/35/40
f 21/26/41 53/23/41 45/23/41
f 21/26/42 55/23/42 56/26/42
f 46/19/43 60/22/43 24/22/43
f 48/35/44 49/27/44 50/30/44
f 44/27/45 47/31/45 43/31/45
f 18/30/46 49/27/46 44/27/46
f 18/30/47 48/35/47 50/30/47
f 52/30/48 53/23/48 54/26/48
f 21/26/49 52/30/49 54/26/49
f 18/30/50 51/27/50 52/30/50
f 45/23/51 51/27/51 44/27/51
f 55/23/52 58/22/52 56/26/52
f 24/22/53 56/26/53 58/22/53
f 46/19/54 55/23/54 45/23/54
f 24/22/55 57/19/55 46/19/55
f 60/22/56 62/20/56 61/18/56
f 42/36/57 61/46/57 62/36/57
f 12/18/58 60/22/58 61/18/58
f 42/20/59 59/19/59 46/19/59
f 65/46/60 63/31/60 64/35/60
f 12/46/61 64/35/61 15/35/61
f 43/31/62 64/35/62 63/31/62
f 12/46/63 66/36/63 65/46/63
f 67/16/64 76/13/64 71/13/64
f 5/24/65 68/28/65 3/28/65
f 1/16/66 71/13/66 9/13/66
f 1/33/67 68/28/67 67/33/67
f 7/14/68 69/24/68 5/24/68
f 73/47/69 75/48/69 76/49/69
f 70/14/70 74/24/70 69/24/70
f 68/28/71 72/33/71 67/33/71
f 71/13/72 75/14/72 70/14/72
f 69/24/73 73/28/73 68/28/73
f 4/1/74 30/1/74 31/2/74
f 6/4/75 34/4/75 35/1/75
f 20/5/76 17/32/76 28/6/76
f 6/4/77 4/1/77 2/3/77
f 2/3/78 10/50/78 8/7/78
f 10/8/79 23/9/79 41/9/79
f 23/9/80 10/8/80 2/11/80
f 9/13/7 71/13/7 70/14/7
f 9/13/81 25/17/81 11/15/81
f 25/17/82 24/22/82 12/18/82
f 46/19/83 23/9/83 13/12/83
f 7/14/84 22/21/84 25/17/84
f 22/21/85 21/26/85 24/22/85
f 20/5/86 23/9/86 46/19/86
f 5/24/87 19/25/87 22/21/87
f 19/25/88 18/30/88 21/26/88
f 44/27/89 17/32/89 20/5/89
f 3/28/90 16/29/90 19/25/90
f 16/29/91 15/35/91 18/30/91
f 43/31/92 14/37/92 17/32/92
f 1/33/93 11/34/93 16/29/93
f 11/34/94 12/46/94 15/35/94
f 42/36/95 13/41/95 14/37/95
f 28/6/96 27/39/96 26/38/96
f 6/39/97 27/39/97 28/6/97
f 8/7/25 26/7/25 27/40/25
f 8/38/98 20/5/98 29/5/98
f 32/41/99 31/51/99 30/42/99
f 2/11/100 31/52/100 32/12/100
f 13/41/101 32/41/101 33/37/101
f 4/42/102 14/37/102 33/37/102
f 36/37/103 35/42/103 34/39/103
f 17/32/104 37/32/104 34/39/104
f 17/32/105 14/37/105 36/37/105
f 14/37/106 4/42/106 35/42/106
f 40/43/107 39/53/107 38/10/107
f 8/38/108 39/53/108 40/43/108
f 23/9/109 20/5/109 40/43/109
f 8/7/110 10/50/110 38/44/110
f 43/31/39 63/31/39 66/36/39
f 43/31/111 47/31/111 48/35/111
f 21/26/112 54/26/112 53/23/112
f 21/26/42 45/23/42 55/23/42
f 46/19/113 59/19/113 60/22/113
f 48/35/114 47/31/114 49/27/114
f 44/27/115 49/27/115 47/31/115
f 18/30/116 50/30/116 49/27/116
f 18/30/117 15/35/117 48/35/117
f 52/30/118 51/27/118 53/23/118
f 21/26/49 18/30/49 52/30/49
f 18/30/119 44/27/119 51/27/119
f 45/23/51 53/23/51 51/27/51
f 55/23/120 57/19/120 58/22/120
f 24/22/53 21/26/53 56/26/53
f 46/19/54 57/19/54 55/23/54
f 24/22/55 58/22/55 57/19/55
f 60/22/121 59/19/121 62/20/121
f 42/36/122 12/46/122 61/46/122
f 12/18/123 24/22/123 60/22/123
f 42/20/124 62/20/124 59/19/124
f 65/46/125 66/36/125 63/31/125
f 12/46/61 65/46/61 64/35/61
f 43/31/62 15/35/62 64/35/62
f 12/46/63 42/36/63 66/36/63
f 67/16/64 72/16/64 76/13/64
f 5/24/65 69/24/65 68/28/65
f 1/16/66 67/16/66 71/13/66
f 1/33/67 3/28/67 68/28/67
f 7/14/68 70/14/68 69/24/68
f 76/49/69 72/54/69 73/47/69
f 73/47/69 74/55/69 75/48/69
f 70/14/70 75/14/70 74/24/70
f 68/28/71 73/28/71 72/33/71
f 71/13/72 76/13/72 75/14/72
f 69/24/73 74/24/73 73/28/73
