# Blender 4.4.0
# www.blender.org
o Sphere
v 0.323900 0.733861 -0.309496
v 0.470031 0.701583 -0.309496
v 0.290428 0.750347 -0.309496
v 0.330026 0.733861 -0.286634
v 0.470031 0.759553 -0.251525
v 0.456579 0.701583 -0.259292
v 0.419827 0.659145 -0.280510
v 0.301038 0.750347 -0.269898
v 0.346762 0.733861 -0.269898
v 0.427594 0.759553 -0.209088
v 0.419827 0.701583 -0.222540
v 0.398609 0.659145 -0.259292
v 0.330026 0.750347 -0.240910
v 0.369624 0.733861 -0.263772
v 0.369624 0.759553 -0.193555
v 0.369623 0.701583 -0.209088
v 0.369624 0.659145 -0.251525
v 0.369623 0.750347 -0.230300
v 0.392485 0.733861 -0.269898
v 0.311653 0.759553 -0.209088
v 0.319420 0.701583 -0.222540
v 0.340638 0.659145 -0.259292
v 0.409221 0.750347 -0.240910
v 0.409221 0.733861 -0.286634
v 0.269216 0.759553 -0.251525
v 0.282668 0.701583 -0.259292
v 0.319420 0.659145 -0.280510
v 0.438209 0.750347 -0.269898
v 0.448819 0.750347 -0.309496
v 0.253683 0.759553 -0.309496
v 0.269216 0.701583 -0.309496
v 0.311653 0.659145 -0.309496
v 0.457910 0.759553 -0.309496
v 0.446081 0.759553 -0.353639
v 0.413767 0.759553 -0.385954
v 0.269216 0.759553 -0.367466
v 0.282668 0.701583 -0.359699
v 0.319420 0.659145 -0.338481
v 0.369624 0.759553 -0.397782
v 0.325480 0.759553 -0.385954
v 0.311653 0.759553 -0.409903
v 0.319420 0.701583 -0.396451
v 0.340638 0.659145 -0.359699
v 0.293166 0.759553 -0.353639
v 0.281337 0.759553 -0.309496
v 0.369624 0.759553 -0.425436
v 0.369624 0.701583 -0.409903
v 0.369624 0.659145 -0.367466
v 0.293166 0.759553 -0.265352
v 0.325480 0.759553 -0.233038
v 0.427594 0.759553 -0.409903
v 0.419827 0.701583 -0.396451
v 0.398609 0.659145 -0.359699
v 0.369624 0.759553 -0.221209
v 0.413767 0.759553 -0.233038
v 0.470031 0.759553 -0.367466
v 0.456579 0.701583 -0.359699
v 0.419827 0.659145 -0.338481
v 0.446081 0.759553 -0.265352
v 0.485564 0.759553 -0.309496
v 0.427594 0.659145 -0.309496
v 0.301038 0.750347 -0.349093
v 0.330026 0.733861 -0.332357
v 0.369624 0.727827 -0.309496
v 0.330026 0.750347 -0.378081
v 0.346762 0.733861 -0.349093
v 0.369624 0.750347 -0.388691
v 0.369624 0.733861 -0.355219
v 0.409221 0.750347 -0.378081
v 0.392485 0.733861 -0.349093
v 0.438209 0.750347 -0.349093
v 0.409221 0.733861 -0.332357
v 0.415347 0.733861 -0.309496
v 0.419827 0.648461 -0.280510
v 0.398609 0.648461 -0.259292
v 0.369624 0.648461 -0.251525
v 0.340638 0.648461 -0.259292
v 0.319420 0.648461 -0.280510
v 0.311653 0.648461 -0.309496
v 0.319420 0.648461 -0.338481
v 0.369624 0.647733 -0.309496
v 0.340638 0.648461 -0.359699
v 0.369624 0.648461 -0.367466
v 0.398609 0.648461 -0.359699
v 0.419827 0.648461 -0.338481
v 0.427594 0.648461 -0.309496
vn 0.6947 -0.6947 0.1862
vn 0.4388 -0.8909 -0.1176
vn -0.0350 -0.9908 -0.1308
vn -0.9659 -0.0000 -0.2588
vn 0.9351 -0.2506 0.2506
vn 0.1308 -0.9908 -0.0350
vn -0.1176 -0.8909 -0.4388
vn 0.1176 -0.8909 -0.4388
vn 0.2588 -0.0000 0.9659
vn 0.6846 -0.2506 0.6846
vn 0.0350 -0.9908 -0.1308
vn 0.5086 -0.6947 0.5086
vn -0.3212 -0.8909 -0.3212
vn -0.7071 -0.0000 0.7071
vn 0.2506 -0.2506 0.9351
vn -0.0957 -0.9908 -0.0957
vn 0.1862 -0.6947 0.6947
vn -0.1308 -0.9908 -0.0350
vn 0.7071 -0.0000 0.7071
vn -0.2506 -0.2506 0.9351
vn -0.4388 -0.8909 -0.1176
vn -0.1862 -0.6947 0.6947
vn -0.1308 -0.9908 0.0350
vn -0.4388 -0.8909 0.1176
vn 0.9659 -0.0000 -0.2588
vn -0.6846 -0.2506 0.6845
vn -0.3212 -0.8909 0.3212
vn -0.5086 -0.6947 0.5086
vn -0.1176 -0.8909 0.4388
vn -0.0957 -0.9908 0.0957
vn 0.2588 -0.0000 -0.9659
vn -0.9351 -0.2506 0.2506
vn -0.0350 -0.9908 0.1308
vn -0.6947 -0.6947 0.1862
vn 0.0350 -0.9908 0.1308
vn 0.1176 -0.8909 0.4388
vn -0.9351 -0.2506 -0.2506
vn 0.3212 -0.8909 0.3212
vn -0.6947 -0.6947 -0.1862
vn 0.1308 -0.9908 0.0350
vn 0.0957 -0.9908 0.0957
vn -0.9659 -0.0000 0.2588
vn -0.0000 1.0000 -0.0000
vn -0.5086 -0.6947 -0.5086
vn 0.4388 -0.8909 0.1176
vn 0.7071 -0.0000 -0.7071
vn -0.6846 -0.2506 -0.6846
vn -0.1862 -0.6947 -0.6947
vn -0.2588 -0.0000 0.9659
vn -0.2506 -0.2506 -0.9351
vn 0.1862 -0.6947 -0.6947
vn -0.2588 -0.0000 -0.9659
vn 0.2506 -0.2506 -0.9351
vn 0.5086 -0.6947 -0.5086
vn 0.9659 -0.0000 0.2588
vn 0.6846 -0.2506 -0.6846
vn 0.6947 -0.6947 -0.1862
vn 0.3212 -0.8909 -0.3212
vn -0.7071 -0.0000 -0.7071
vn 0.9351 -0.2506 -0.2506
vn 0.0957 -0.9908 -0.0957
vn 0.1873 -0.6902 -0.6990
vn 0.5117 -0.6902 -0.5117
vn 0.6990 -0.6902 -0.1873
vn 0.6990 -0.6902 0.1873
vn 0.5117 -0.6902 0.5117
vn 0.1873 -0.6902 0.6990
vn -0.1873 -0.6902 0.6990
vn -0.5117 -0.6902 0.5117
vn -0.6990 -0.6902 0.1873
vn -0.6990 -0.6902 -0.1873
vn -0.5117 -0.6902 -0.5117
vn -0.1873 -0.6902 -0.6990
vn 0.0126 -0.9999 0.0034
vn 0.0092 -0.9999 0.0092
vn 0.0034 -0.9999 0.0126
vn -0.0034 -0.9999 0.0126
vn -0.0092 -0.9999 0.0092
vn -0.0126 -0.9999 0.0034
vn -0.0126 -0.9999 -0.0034
vn -0.0092 -0.9999 -0.0092
vn -0.0034 -0.9999 -0.0126
vn 0.0034 -0.9999 -0.0126
vn 0.0092 -0.9999 -0.0092
vn 0.0126 -0.9999 -0.0034
vn -0.6846 -0.2506 0.6846
vt 0.750000 0.166667
vt 0.666667 0.333333
vt 0.666667 0.166667
vt 0.833333 0.333333
vt 0.833333 0.166667
vt 0.041667 0.000000
vt 0.083333 0.166667
vt 0.000000 0.166667
vt 0.166667 0.166667
vt 0.250000 0.166667
vt 0.750000 0.500000
vt 0.750000 0.333333
vt 0.791667 0.000000
vt 0.083333 0.333333
vt 1.000000 0.333333
vt 0.916667 0.166667
vt 1.000000 0.166667
vt 0.500000 0.166667
vt 0.583333 0.166667
vt 0.666667 0.500000
vt 0.583333 0.333333
vt 0.958333 0.000000
vt 0.166667 0.333333
vt 0.333333 0.166667
vt 0.416667 0.166667
vt 0.500000 0.500000
vt 0.500000 0.333333
vt 0.125000 0.000000
vt 0.208333 0.000000
vt 0.416667 0.500000
vt 0.416667 0.333333
vt 0.250000 0.333333
vt 0.291667 0.000000
vt 0.333333 0.333333
vt 0.333333 0.500000
vt 0.375000 0.000000
vt 0.458333 0.000000
vt 0.541667 0.000000
vt 0.166667 0.500000
vt 0.708333 0.000000
vt 0.625000 0.000000
vt 0.083333 0.500000
vt 0.250000 0.500000
vt 0.000000 0.500000
vt 0.000000 0.333333
vt 1.000000 0.500000
vt 0.916667 0.500000
vt 0.916667 0.333333
vt 0.833333 0.500000
vt 0.583333 0.500000
vt 0.875000 0.000000
s 0
f 61/1/1 6/2/1 7/3/1
f 71/4/2 73/1/2 72/5/2
f 64/6/3 66/7/3 68/8/3
f 38/9/4 79/10/4 32/10/4
f 60/11/5 6/2/5 2/12/5
f 64/13/6 72/5/6 73/1/6
f 65/14/7 68/8/7 66/7/7
f 67/15/8 70/16/8 68/17/8
f 17/18/9 75/19/9 12/19/9
f 5/20/10 11/21/10 6/2/10
f 64/22/11 68/17/11 70/16/11
f 6/2/12 12/19/12 7/3/12
f 62/23/13 66/7/13 63/9/13
f 27/24/14 77/25/14 22/25/14
f 11/21/15 15/26/15 16/27/15
f 64/28/16 63/9/16 66/7/16
f 11/21/17 17/18/17 12/19/17
f 64/29/18 1/10/18 63/9/18
f 12/19/19 74/3/19 7/3/19
f 16/27/20 20/30/20 21/31/20
f 3/32/21 63/9/21 1/10/21
f 16/27/22 22/25/22 17/18/22
f 64/33/23 4/24/23 1/10/23
f 8/34/24 1/10/24 4/24/24
f 61/1/25 85/5/25 58/5/25
f 21/31/26 25/35/26 26/34/26
f 9/25/27 8/34/27 4/24/27
f 21/31/28 27/24/28 22/25/28
f 14/18/29 13/31/29 9/25/29
f 64/36/30 9/25/30 4/24/30
f 53/16/31 83/17/31 48/17/31
f 25/35/32 31/32/32 26/34/32
f 64/37/33 14/18/33 9/25/33
f 26/34/34 32/10/34 27/24/34
f 64/38/35 19/19/35 14/18/35
f 23/21/36 14/18/36 19/19/36
f 31/32/37 36/39/37 37/23/37
f 28/2/38 19/19/38 24/3/38
f 31/32/39 38/9/39 32/10/39
f 64/40/40 73/1/40 24/3/40
f 64/41/41 24/3/41 19/19/41
f 32/10/42 78/24/42 27/24/42
f 20/30/43 49/35/43 25/35/43
f 37/23/44 43/7/44 38/9/44
f 5/20/43 33/11/43 59/20/43
f 73/1/45 28/2/45 24/3/45
f 58/5/46 84/16/46 53/16/46
f 37/23/47 41/42/47 42/14/47
f 42/14/48 48/8/48 43/7/48
f 25/35/43 45/43/43 30/43/43
f 41/42/43 39/44/43 46/44/43
f 22/25/49 76/18/49 17/18/49
f 42/14/50 46/44/50 47/45/50
f 46/46/43 35/47/43 51/47/43
f 47/15/51 53/16/51 48/17/51
f 30/43/43 44/39/43 36/39/43
f 36/39/43 40/42/43 41/42/43
f 48/8/52 82/7/52 43/7/52
f 47/15/53 51/47/53 52/48/53
f 60/11/43 34/49/43 33/11/43
f 52/48/54 58/5/54 53/16/54
f 51/47/43 34/49/43 56/49/43
f 10/50/43 54/26/43 15/26/43
f 7/3/55 86/1/55 61/1/55
f 51/47/56 57/4/56 52/48/56
f 10/50/43 59/20/43 55/50/43
f 57/4/57 61/1/57 58/5/57
f 69/48/58 72/5/58 70/16/58
f 15/26/43 50/30/43 20/30/43
f 43/7/59 80/9/59 38/9/59
f 57/4/60 60/11/60 2/12/60
f 64/51/61 70/16/61 72/5/61
f 35/47/62 67/15/62 39/46/62
f 34/49/63 69/48/63 35/47/63
f 34/49/64 29/12/64 71/4/64
f 33/11/65 28/2/65 29/12/65
f 55/50/66 28/2/66 59/20/66
f 54/26/67 23/21/67 55/50/67
f 50/30/68 18/27/68 54/26/68
f 50/30/69 8/34/69 13/31/69
f 45/43/70 8/34/70 49/35/70
f 44/39/71 3/32/71 45/43/71
f 40/42/72 62/23/72 44/39/72
f 39/44/73 65/14/73 40/42/73
f 81/40/74 86/1/74 74/3/74
f 81/41/75 74/3/75 75/19/75
f 81/38/76 75/19/76 76/18/76
f 81/37/77 76/18/77 77/25/77
f 81/36/78 77/25/78 78/24/78
f 81/33/79 78/24/79 79/10/79
f 81/29/80 79/10/80 80/9/80
f 81/28/81 80/9/81 82/7/81
f 81/6/82 82/7/82 83/8/82
f 81/22/83 83/17/83 84/16/83
f 81/51/84 84/16/84 85/5/84
f 81/13/85 85/5/85 86/1/85
f 61/1/1 2/12/1 6/2/1
f 71/4/2 29/12/2 73/1/2
f 38/9/4 80/9/4 79/10/4
f 60/11/5 5/20/5 6/2/5
f 65/14/7 67/45/7 68/8/7
f 67/15/8 69/48/8 70/16/8
f 17/18/9 76/18/9 75/19/9
f 5/20/10 10/50/10 11/21/10
f 6/2/12 11/21/12 12/19/12
f 62/23/13 65/14/13 66/7/13
f 27/24/14 78/24/14 77/25/14
f 11/21/15 10/50/15 15/26/15
f 11/21/17 16/27/17 17/18/17
f 12/19/19 75/19/19 74/3/19
f 16/27/20 15/26/20 20/30/20
f 3/32/21 62/23/21 63/9/21
f 16/27/22 21/31/22 22/25/22
f 8/34/24 3/32/24 1/10/24
f 61/1/25 86/1/25 85/5/25
f 21/31/86 20/30/86 25/35/86
f 9/25/27 13/31/27 8/34/27
f 21/31/28 26/34/28 27/24/28
f 14/18/29 18/27/29 13/31/29
f 53/16/31 84/16/31 83/17/31
f 25/35/32 30/43/32 31/32/32
f 26/34/34 31/32/34 32/10/34
f 23/21/36 18/27/36 14/18/36
f 31/32/37 30/43/37 36/39/37
f 28/2/38 23/21/38 19/19/38
f 31/32/39 37/23/39 38/9/39
f 32/10/42 79/10/42 78/24/42
f 20/30/43 50/30/43 49/35/43
f 37/23/44 42/14/44 43/7/44
f 5/20/43 60/11/43 33/11/43
f 73/1/45 29/12/45 28/2/45
f 58/5/46 85/5/46 84/16/46
f 37/23/47 36/39/47 41/42/47
f 42/14/48 47/45/48 48/8/48
f 25/35/43 49/35/43 45/43/43
f 41/42/43 40/42/43 39/44/43
f 22/25/49 77/25/49 76/18/49
f 42/14/50 41/42/50 46/44/50
f 46/46/43 39/46/43 35/47/43
f 47/15/51 52/48/51 53/16/51
f 30/43/43 45/43/43 44/39/43
f 36/39/43 44/39/43 40/42/43
f 48/8/52 83/8/52 82/7/52
f 47/15/53 46/46/53 51/47/53
f 60/11/43 56/49/43 34/49/43
f 52/48/54 57/4/54 58/5/54
f 51/47/43 35/47/43 34/49/43
f 10/50/43 55/50/43 54/26/43
f 7/3/55 74/3/55 86/1/55
f 51/47/56 56/49/56 57/4/56
f 10/50/43 5/20/43 59/20/43
f 57/4/57 2/12/57 61/1/57
f 69/48/58 71/4/58 72/5/58
f 15/26/43 54/26/43 50/30/43
f 43/7/59 82/7/59 80/9/59
f 57/4/60 56/49/60 60/11/60
f 35/47/62 69/48/62 67/15/62
f 34/49/63 71/4/63 69/48/63
f 34/49/64 33/11/64 29/12/64
f 33/11/65 59/20/65 28/2/65
f 55/50/66 23/21/66 28/2/66
f 54/26/67 18/27/67 23/21/67
f 50/30/68 13/31/68 18/27/68
f 50/30/69 49/35/69 8/34/69
f 45/43/70 3/32/70 8/34/70
f 44/39/71 62/23/71 3/32/71
f 40/42/72 65/14/72 62/23/72
f 39/44/73 67/45/73 65/14/73
