# Blender 4.4.0
# www.blender.org
o Cube
v 1.000000 2.000000 1.000000
v 1.000000 0.000000 1.000000
v 0.875000 0.125000 -0.875000
v -1.000000 0.000000 1.000000
v 1.000000 2.000000 -1.000000
v 1.000000 0.000000 -1.000000
v -1.000000 2.000000 -1.000000
v -1.000000 0.000000 -1.000000
v 0.875000 0.000000 -1.000000
v 0.875000 2.000000 1.000000
v 0.875000 2.000000 -1.000000
v 0.875000 0.000000 1.000000
v 1.000000 0.000000 -0.875000
v -1.000000 2.000000 -0.875000
v -1.000000 0.000000 -0.875000
v 1.000000 2.000000 -0.875000
v 0.875000 0.000000 -0.875000
v 0.875000 2.000000 -0.875000
v 1.000000 0.125000 1.000000
v -1.000000 0.125000 -1.000000
v -1.000000 0.125000 1.000000
v 1.000000 0.125000 -1.000000
v 0.875000 0.125000 1.000000
v 0.875000 0.125000 -1.000000
v 1.000000 0.125000 -0.875000
v -1.000000 0.125000 -0.875000
v -1.000000 0.710695 -1.000000
v -1.000000 1.548493 -1.000000
v 0.875000 0.710695 -0.875000
v 0.875000 1.548493 -0.875000
v 1.000000 1.548493 1.000000
v 1.000000 0.710695 1.000000
v 1.000000 1.548493 -1.000000
v 1.000000 0.710695 -1.000000
v 0.875000 1.548493 1.000000
v 0.875000 0.710695 1.000000
v 0.875000 1.548493 -1.000000
v 0.875000 0.710695 -1.000000
v 1.000000 1.548493 -0.875000
v 1.000000 0.710695 -0.875000
v -1.000000 1.548493 -0.875000
v -1.000000 0.710695 -0.875000
v 0.580924 0.000000 -1.000000
v -0.705924 0.000000 -1.000000
v -0.705924 2.000000 -1.000000
v 0.580924 2.000000 -1.000000
v -0.705924 0.000000 1.000000
v 0.580924 0.000000 1.000000
v 0.580924 0.125000 -0.875000
v -0.705924 0.125000 -0.875000
v 0.580924 0.000000 -0.875000
v -0.705924 0.000000 -0.875000
v 0.580924 2.000000 -0.875000
v -0.705924 2.000000 -0.875000
v -0.705924 0.125000 -1.000000
v 0.580924 0.125000 -1.000000
v 0.580924 0.125000 1.000000
v -0.705924 0.125000 1.000000
v -0.705924 0.710695 -1.000000
v 0.580924 0.710695 -1.000000
v -0.705924 1.548493 -1.000000
v 0.580924 1.548493 -1.000000
v 0.580924 0.710695 -0.875000
v -0.705924 0.710695 -0.875000
v 0.580924 1.548493 -0.875000
v -0.705924 1.548493 -0.875000
vn -0.0000 1.0000 -0.0000
vn -1.0000 -0.0000 -0.0000
vn -0.0000 -0.0000 -1.0000
vn -0.0000 -1.0000 -0.0000
vn -0.0000 -0.0000 1.0000
vn 1.0000 -0.0000 -0.0000
vt 0.875000 0.708333
vt 0.843750 0.750000
vt 0.843750 0.708333
vt 0.625000 0.968750
vt 0.552083 1.000000
vt 0.552083 0.968750
vt 0.625000 0.125000
vt 0.552083 0.250000
vt 0.552083 0.125000
vt 0.375000 0.708333
vt 0.156250 0.750000
vt 0.156250 0.708333
vt 0.697917 0.854167
vt 0.555556 0.784722
vt 0.625000 0.281250
vt 0.552083 0.500000
vt 0.552083 0.281250
vt 0.625000 0.500000
vt 0.552083 0.625000
vt 0.375000 0.500000
vt 0.156250 0.625000
vt 0.156250 0.500000
vt 0.625000 0.083333
vt 0.552083 0.083333
vt 0.875000 0.500000
vt 0.843750 0.625000
vt 0.843750 0.500000
vt 0.625000 0.625000
vt 0.125000 0.625000
vt 0.125000 0.500000
vt 0.625000 0.250000
vt 0.125000 0.750000
vt 0.125000 0.708333
vt 0.406250 0.666667
vt 0.000000 0.000000
vt 0.135417 0.322917
vt 0.562500 0.416667
vt 0.406250 0.750000
vt 0.375000 0.968750
vt 0.375000 0.750000
vt 0.406250 0.250000
vt 0.375000 0.281250
vt 0.375000 0.250000
vt 0.406250 0.083333
vt 0.375000 0.125000
vt 0.375000 0.083333
vt 0.406250 0.500000
vt 0.375000 0.625000
vt 0.406250 0.281250
vt 0.406250 0.708333
vt 0.406250 0.125000
vt 0.406250 0.968750
vt 0.375000 1.000000
vt 0.406250 0.625000
vt 0.281250 0.208333
vt 0.479167 0.625000
vt 0.479167 0.250000
vt 0.479167 0.281250
vt 0.479167 0.083333
vt 0.479167 0.125000
vt 0.479167 0.500000
vt 0.413194 0.715278
vt 0.270833 0.645833
vt 0.479167 0.968750
vt 0.406250 1.000000
vt 0.479167 1.000000
vt 0.347222 0.461806
vt 0.559028 0.600694
vt 0.552083 0.000000
vt 0.479167 0.041667
vt 0.479167 0.000000
vt 0.406250 0.041667
vt 0.406250 0.000000
vt 0.375000 0.666667
vt 0.375000 0.041667
vt 0.375000 0.000000
vt 0.125000 0.666667
vt 0.156250 0.666667
vt 0.625000 0.000000
vt 0.552083 0.041667
vt 0.625000 0.041667
vt 0.770833 0.739583
vt 0.875000 0.625000
vt 0.843750 0.666667
vt 0.875000 0.666667
vt 0.875000 0.750000
vt 0.625000 1.000000
s 0
f 45/1/1 14/2/1 54/3/1
f 14/4/2 28/5/2 41/6/2
f 11/7/3 33/8/3 37/9/3
f 47/10/4 15/11/4 52/12/4
f 54/13/5 41/6/5 66/14/5
f 16/15/6 31/16/6 39/17/6
f 1/18/5 35/19/5 31/16/5
f 2/20/4 17/21/4 13/22/4
f 46/23/3 37/9/3 62/24/3
f 5/25/1 18/26/1 16/27/1
f 16/27/1 10/28/1 1/18/1
f 13/22/4 9/29/4 6/30/4
f 5/31/6 39/17/6 33/8/6
f 52/12/4 8/32/4 44/33/4
f 57/34/1 3/35/1 49/36/1
f 35/19/2 18/26/2 30/37/2
f 21/38/2 15/39/2 4/40/2
f 22/41/6 13/42/6 6/43/6
f 56/44/3 9/45/3 43/46/3
f 19/47/5 12/48/5 2/20/5
f 25/49/6 2/20/6 13/42/6
f 58/50/5 4/40/5 47/10/5
f 24/51/3 6/43/3 9/45/3
f 26/52/2 8/53/2 15/39/2
f 23/54/2 29/55/2 3/35/2
f 36/56/2 30/37/2 29/55/2
f 34/57/6 25/49/6 22/41/6
f 33/8/6 40/58/6 34/57/6
f 60/59/3 24/51/3 56/44/3
f 62/24/3 38/60/3 60/59/3
f 32/61/5 23/54/5 19/47/5
f 31/16/5 36/56/5 32/61/5
f 40/58/6 19/47/6 25/49/6
f 39/17/6 32/61/6 40/58/6
f 64/62/5 26/52/5 50/63/5
f 66/14/5 42/64/5 64/62/5
f 38/60/3 22/41/3 24/51/3
f 37/9/3 34/57/3 38/60/3
f 42/64/2 20/65/2 26/52/2
f 41/6/2 27/66/2 42/64/2
f 30/37/5 63/67/5 29/55/5
f 66/14/4 62/24/4 65/68/4
f 29/55/5 49/36/5 3/35/5
f 63/67/5 50/63/5 49/36/5
f 28/69/3 59/70/3 27/71/3
f 63/67/2 62/24/2 60/59/2
f 27/71/3 55/72/3 20/73/3
f 59/70/3 56/44/3 55/72/3
f 23/54/5 48/74/5 12/48/5
f 57/34/5 47/10/5 48/74/5
f 20/73/3 44/75/3 8/76/3
f 55/72/3 43/46/3 44/75/3
f 21/38/1 50/63/1 26/52/1
f 58/50/1 49/36/1 50/63/1
f 17/21/4 43/77/4 9/29/4
f 51/78/4 44/33/4 43/77/4
f 7/79/3 61/80/3 28/69/3
f 45/81/3 62/24/3 61/80/3
f 18/26/5 65/68/5 30/37/5
f 53/82/5 66/14/5 65/68/5
f 12/48/4 51/78/4 17/21/4
f 48/74/4 52/12/4 51/78/4
f 11/83/1 53/84/1 18/26/1
f 46/85/1 54/3/1 53/84/1
f 66/14/6 59/70/6 61/80/6
f 63/67/1 59/70/1 64/62/1
f 45/1/1 7/86/1 14/2/1
f 14/4/2 7/87/2 28/5/2
f 11/7/3 5/31/3 33/8/3
f 47/10/4 4/40/4 15/11/4
f 54/13/5 14/4/5 41/6/5
f 16/15/6 1/18/6 31/16/6
f 1/18/5 10/28/5 35/19/5
f 2/20/4 12/48/4 17/21/4
f 46/23/3 11/7/3 37/9/3
f 5/25/1 11/83/1 18/26/1
f 16/27/1 18/26/1 10/28/1
f 13/22/4 17/21/4 9/29/4
f 5/31/6 16/15/6 39/17/6
f 52/12/4 15/11/4 8/32/4
f 57/34/1 23/54/1 3/35/1
f 35/19/2 10/28/2 18/26/2
f 21/38/2 26/52/2 15/39/2
f 22/41/6 25/49/6 13/42/6
f 56/44/3 24/51/3 9/45/3
f 19/47/5 23/54/5 12/48/5
f 25/49/6 19/47/6 2/20/6
f 58/50/5 21/38/5 4/40/5
f 24/51/3 22/41/3 6/43/3
f 26/52/2 20/65/2 8/53/2
f 23/54/2 36/56/2 29/55/2
f 36/56/2 35/19/2 30/37/2
f 34/57/6 40/58/6 25/49/6
f 33/8/6 39/17/6 40/58/6
f 60/59/3 38/60/3 24/51/3
f 62/24/3 37/9/3 38/60/3
f 32/61/5 36/56/5 23/54/5
f 31/16/5 35/19/5 36/56/5
f 40/58/6 32/61/6 19/47/6
f 39/17/6 31/16/6 32/61/6
f 64/62/5 42/64/5 26/52/5
f 66/14/5 41/6/5 42/64/5
f 38/60/3 34/57/3 22/41/3
f 37/9/3 33/8/3 34/57/3
f 42/64/2 27/66/2 20/65/2
f 41/6/2 28/5/2 27/66/2
f 30/37/5 65/68/5 63/67/5
f 66/14/4 61/80/4 62/24/4
f 29/55/5 63/67/5 49/36/5
f 63/67/5 64/62/5 50/63/5
f 28/69/3 61/80/3 59/70/3
f 63/67/2 65/68/2 62/24/2
f 27/71/3 59/70/3 55/72/3
f 59/70/3 60/59/3 56/44/3
f 23/54/5 57/34/5 48/74/5
f 57/34/5 58/50/5 47/10/5
f 20/73/3 55/72/3 44/75/3
f 55/72/3 56/44/3 43/46/3
f 21/38/1 58/50/1 50/63/1
f 58/50/1 57/34/1 49/36/1
f 17/21/4 51/78/4 43/77/4
f 51/78/4 52/12/4 44/33/4
f 7/79/3 45/81/3 61/80/3
f 45/81/3 46/23/3 62/24/3
f 18/26/5 53/82/5 65/68/5
f 53/82/5 54/13/5 66/14/5
f 12/48/4 48/74/4 51/78/4
f 48/74/4 47/10/4 52/12/4
f 11/83/1 46/85/1 53/84/1
f 46/85/1 45/1/1 54/3/1
f 66/14/6 64/62/6 59/70/6
f 63/67/1 60/59/1 59/70/1
